<svg viewBox="0 0 200 88.0167" fill="none" xmlns="http://www.w3.org/2000/svg" xmlns:xlink="http://www.w3.org/1999/xlink" x="0" y="0"><defs><clipPath id="clip1_62_91">
<rect width="200" height="88.0167" fill="white" transform="translate(0, 0)"/>
</clipPath></defs><g id="undraw_on_the_way_re_swjt 1" clip-path="url(#clip1_62_91)">
<path id="Vector_10" d="M59.501,72.47c-0.688,5.387 -3.216,10.316 -5.914,15.064c-0.089,0.162 -0.181,0.321 -0.275,0.483h-28.033c-0.567,-0.148 -1.127,-0.309 -1.684,-0.483c-3.167,-0.964 -6.156,-2.434 -8.852,-4.355c-10.314,-7.43 -14.282,-21.471 -12.49,-34.053c1.115,-7.816 4.545,-15.797 11.226,-20.007c3.527,-2.227 8.058,-2.95 12.118,-2.123c0.106,0.019 0.212,0.044 0.321,0.065c3.493,0.787 6.605,2.741 8.376,5.889c3.185,5.658 1.289,12.666 -0.277,18.963c-1.561,6.297 -2.408,13.833 2.123,18.478c-1.496,-4.403 -0.019,-9.655 3.554,-12.633c2.699,-2.246 6.458,-3.088 9.886,-2.39c0.328,0.07 0.652,0.149 0.97,0.246c0.77,0.225 1.512,0.536 2.212,0.926c5.344,2.984 7.508,9.858 6.739,15.93z" fill="#F2F2F2" fill-opacity="0.1"/>
<path id="Vector_11" d="M42.878,87.534c0.777,0.181 1.556,0.34 2.34,0.483h-4.239c-0.555,-0.15 -1.107,-0.309 -1.655,-0.483c-1.203,-0.376 -2.389,-0.808 -3.556,-1.295c-4.68,-1.964 -8.991,-4.912 -12.253,-8.835c-1.595,-1.901 -2.898,-4.029 -3.865,-6.314c-1.049,-2.583 -1.715,-5.304 -1.978,-8.079c-0.591,-5.694 0.012,-11.544 1.139,-17.137c1.162,-5.796 3.039,-11.425 5.587,-16.76c0.306,-0.639 0.623,-1.274 0.951,-1.906c0.022,-0.052 0.056,-0.098 0.099,-0.134c0.043,-0.037 0.094,-0.064 0.149,-0.078c0.111,-0.021 0.227,0.002 0.321,0.065c0.113,0.065 0.197,0.171 0.234,0.296c0.037,0.124 0.025,0.259 -0.034,0.375c-2.627,5.123 -4.618,10.548 -5.93,16.154c-1.283,5.47 -2.012,11.192 -1.763,16.816c0.236,5.254 1.609,10.422 4.723,14.719c2.845,3.923 6.772,7.015 11.117,9.122c2.75,1.315 5.639,2.319 8.613,2.991z" fill="white" fill-opacity="0.1"/>
<path id="Vector_12" d="M52.181,88.017h-1.25c-0.14,-0.16 -0.275,-0.321 -0.407,-0.483c-2.847,-3.458 -4.775,-7.579 -5.607,-11.981c-1.011,-5.492 -0.225,-11.164 2.241,-16.176c0.688,-1.405 1.498,-2.747 2.422,-4.009c0.328,0.07 0.652,0.149 0.97,0.246c-2.43,3.219 -4.064,6.967 -4.77,10.938c-0.629,3.721 -0.42,7.536 0.613,11.166c1.032,3.63 2.862,6.983 5.356,9.816c0.14,0.162 0.285,0.323 0.432,0.483z" fill="white" fill-opacity="0.1"/>
<path id="Vector_13" d="M164.76,83.914c0.181,1.421 0.849,2.722 1.56,3.975c0.024,0.043 0.048,0.085 0.073,0.128h7.399c0.149,-0.039 0.297,-0.082 0.444,-0.128c0.836,-0.254 1.625,-0.642 2.336,-1.149c2.722,-1.961 3.769,-5.667 3.296,-8.987c-0.294,-2.063 -1.199,-4.169 -2.962,-5.28c-0.958,-0.584 -2.1,-0.784 -3.198,-0.561c-0.029,0.005 -0.057,0.012 -0.085,0.017c-0.457,0.089 -0.891,0.273 -1.272,0.541c-0.381,0.268 -0.701,0.613 -0.939,1.014c-0.84,1.493 -0.34,3.342 0.073,5.004c0.412,1.662 0.636,3.651 -0.56,4.877c0.175,-0.513 0.211,-1.063 0.103,-1.594c-0.108,-0.531 -0.355,-1.023 -0.716,-1.427c-0.361,-0.404 -0.823,-0.704 -1.339,-0.87c-0.516,-0.166 -1.066,-0.191 -1.595,-0.074c-0.087,0.018 -0.172,0.039 -0.256,0.065c-0.203,0.059 -0.399,0.141 -0.584,0.244c-1.41,0.788 -1.981,2.602 -1.778,4.205z" fill="#353535"/>
<path id="Vector_14" d="M169.147,87.889c-0.205,0.048 -0.411,0.09 -0.618,0.128h1.119c0.146,-0.04 0.292,-0.082 0.437,-0.128c0.317,-0.099 0.63,-0.213 0.938,-0.342c1.249,-0.507 2.358,-1.306 3.234,-2.331c0.421,-0.502 0.765,-1.063 1.02,-1.667c0.277,-0.681 0.453,-1.4 0.522,-2.132c0.127,-1.514 0.026,-3.039 -0.3,-4.522c-0.307,-1.53 -0.803,-3.016 -1.475,-4.424c-0.081,-0.168 -0.164,-0.336 -0.251,-0.503c-0.006,-0.013 -0.015,-0.026 -0.026,-0.035c-0.012,-0.01 -0.025,-0.017 -0.039,-0.021c-0.03,-0.005 -0.06,0.001 -0.085,0.017c-0.03,0.018 -0.052,0.045 -0.062,0.078c-0.01,0.033 -0.007,0.069 0.009,0.099c0.693,1.353 1.219,2.784 1.565,4.264c0.357,1.451 0.513,2.944 0.466,4.438c-0.026,1.389 -0.459,2.74 -1.247,3.884c-0.766,1.031 -1.774,1.858 -2.934,2.408c-0.726,0.347 -1.488,0.612 -2.273,0.789z" fill="#494949"/>
<path id="Vector_15" d="M166.692,88.017h0.329c0.037,-0.042 0.073,-0.085 0.108,-0.128c0.751,-0.912 1.26,-2 1.48,-3.162c0.266,-1.449 0.059,-2.946 -0.592,-4.269c-0.181,-0.371 -0.395,-0.725 -0.639,-1.058c-0.087,0.018 -0.172,0.039 -0.256,0.065c0.641,0.85 1.073,1.839 1.259,2.887c0.166,0.982 0.111,1.989 -0.162,2.947c-0.272,0.958 -0.755,1.843 -1.413,2.59c-0.037,0.043 -0.076,0.086 -0.114,0.128z" fill="#494949"/>
<path id="Vector_16" d="M98.072,51.269h-23.156l-0.245,-7.12c-0.011,-0.309 0.046,-0.616 0.165,-0.901c0.12,-0.284 0.3,-0.54 0.527,-0.749c0.228,-0.208 0.498,-0.365 0.792,-0.459c0.294,-0.094 0.605,-0.124 0.912,-0.086l13.475,1.65h0.002c1.997,0.005 3.912,0.802 5.323,2.216c1.411,1.414 2.204,3.33 2.205,5.328z" fill="#9BFE03"/>
<path id="Vector_17" d="M87.752,26.014h-16.15c-0.215,0 -0.428,0.042 -0.626,0.125c-0.199,0.082 -0.379,0.202 -0.531,0.354c-0.152,0.152 -0.272,0.332 -0.354,0.531c-0.083,0.198 -0.125,0.411 -0.125,0.626v16.15c0,0.215 0.042,0.427 0.125,0.626c0.082,0.198 0.202,0.378 0.354,0.53c0.152,0.152 0.332,0.273 0.531,0.355c0.198,0.082 0.411,0.124 0.626,0.124h16.15c0.215,0 0.427,-0.042 0.626,-0.124c0.198,-0.082 0.378,-0.203 0.53,-0.355c0.152,-0.152 0.273,-0.332 0.355,-0.53c0.082,-0.199 0.124,-0.411 0.124,-0.626v-16.15c0,-0.215 -0.042,-0.428 -0.124,-0.626c-0.082,-0.199 -0.203,-0.379 -0.355,-0.531c-0.152,-0.152 -0.332,-0.272 -0.53,-0.354c-0.199,-0.083 -0.411,-0.125 -0.626,-0.125z" fill="#CCCCCC"/>
<path id="Vector_18" d="M84.114,38.091l-7.625,1.485c-0.452,0.087 -0.921,-0.008 -1.303,-0.266c-0.382,-0.257 -0.646,-0.656 -0.734,-1.108l-0.587,-3.01c-0.087,-0.452 0.008,-0.921 0.266,-1.303c0.257,-0.382 0.656,-0.646 1.108,-0.735l7.625,-1.485c0.452,-0.087 0.921,0.008 1.303,0.266c0.382,0.257 0.646,0.656 0.735,1.108l0.586,3.01c0.088,0.452 -0.008,0.921 -0.265,1.303c-0.258,0.382 -0.656,0.646 -1.109,0.735z" fill="#3F3D56"/>
<path id="Vector_19" d="M82.589,34.535l-5.819,1.133c-0.107,0.021 -0.217,-0.002 -0.307,-0.062c-0.09,-0.061 -0.152,-0.155 -0.173,-0.261c-0.02,-0.107 0.002,-0.217 0.063,-0.307c0.06,-0.09 0.154,-0.152 0.26,-0.173l5.82,-1.133c0.106,-0.021 0.216,0.002 0.306,0.062c0.09,0.061 0.152,0.155 0.173,0.261c0.021,0.107 -0.002,0.217 -0.062,0.307c-0.061,0.09 -0.155,0.152 -0.261,0.173z" fill="white"/>
<path id="Vector_20" d="M81.458,36.213l-3.01,0.586c-0.107,0.021 -0.217,-0.002 -0.307,-0.062c-0.09,-0.061 -0.152,-0.155 -0.173,-0.261c-0.02,-0.107 0.002,-0.217 0.063,-0.307c0.06,-0.09 0.154,-0.152 0.261,-0.173l3.01,-0.586c0.052,-0.01 0.106,-0.01 0.159,0.001c0.053,0.011 0.103,0.032 0.147,0.062c0.045,0.03 0.083,0.068 0.113,0.113c0.029,0.045 0.05,0.095 0.06,0.147c0.01,0.053 0.01,0.107 -0.001,0.16c-0.01,0.053 -0.031,0.103 -0.061,0.147c-0.03,0.045 -0.069,0.083 -0.114,0.112c-0.044,0.03 -0.094,0.051 -0.147,0.061z" fill="white"/>
<path id="Vector_21" d="M89.387,27.65v2.146h-19.421v-2.146c0,-0.215 0.042,-0.428 0.125,-0.626c0.082,-0.199 0.202,-0.379 0.354,-0.531c0.152,-0.152 0.332,-0.272 0.531,-0.354c0.198,-0.083 0.411,-0.125 0.626,-0.125h16.15c0.215,0 0.427,0.042 0.626,0.125c0.198,0.082 0.378,0.202 0.53,0.354c0.152,0.152 0.273,0.332 0.355,0.531c0.082,0.198 0.124,0.411 0.124,0.626z" fill="#B3B3B3"/>
<path id="Vector_22" d="M128.169,30.468c-0.112,-0.362 -0.302,-0.694 -0.557,-0.975c-0.255,-0.28 -0.568,-0.502 -0.917,-0.648c-0.35,-0.146 -0.727,-0.214 -1.106,-0.199c-0.378,0.015 -0.749,0.113 -1.085,0.287l-22.219,-7.972l-0.979,5.551l22.148,6.09c0.33,0.546 0.848,0.953 1.458,1.142c0.609,0.189 1.266,0.149 1.847,-0.114c0.582,-0.264 1.046,-0.731 1.306,-1.313c0.26,-0.583 0.297,-1.24 0.104,-1.849z" fill="#FFB8B8"/>
<path id="Vector_23" opacity="0.2" d="M128.169,30.468c-0.112,-0.362 -0.302,-0.694 -0.557,-0.975c-0.255,-0.28 -0.568,-0.502 -0.917,-0.648c-0.35,-0.146 -0.727,-0.214 -1.106,-0.199c-0.378,0.015 -0.749,0.113 -1.085,0.287l-22.219,-7.972l-0.979,5.551l22.148,6.09c0.33,0.546 0.848,0.953 1.458,1.142c0.609,0.189 1.266,0.149 1.847,-0.114c0.582,-0.264 1.046,-0.731 1.306,-1.313c0.26,-0.583 0.297,-1.24 0.104,-1.849z" fill="black"/>
<path id="Vector_24" d="M106.229,21.973l-2.099,5.481c-0.059,0.156 -0.152,0.297 -0.271,0.414c-0.119,0.117 -0.262,0.207 -0.419,0.264c-0.158,0.056 -0.325,0.078 -0.491,0.065c-0.167,-0.014 -0.328,-0.064 -0.474,-0.146l-5.099,-2.87c-0.796,-0.31 -1.437,-0.923 -1.782,-1.705c-0.345,-0.781 -0.365,-1.668 -0.058,-2.465c0.308,-0.797 0.919,-1.439 1.7,-1.786c0.781,-0.347 1.667,-0.371 2.465,-0.065l5.694,1.263c0.163,0.036 0.317,0.107 0.45,0.208c0.133,0.1 0.243,0.229 0.322,0.376c0.079,0.147 0.125,0.309 0.136,0.476c0.011,0.167 -0.015,0.334 -0.074,0.49z" fill="#9BFE03"/>
<path id="Vector_25" d="M129.918,35.544l-7.961,3.619l1.045,3.935c2.018,7.599 2.554,15.515 1.578,23.317l5.82,1.216l4.826,-12.304l-1.689,-13.993z" fill="#9BFE03"/>
<path id="Vector_26" d="M145.539,53.759c-5.231,0 -9.494,3.802 -9.7,8.564h19.401c-0.207,-4.762 -4.47,-8.564 -9.701,-8.564z" fill="#3F3D56"/>
<path id="Vector_27" d="M141.467,54.579c-0.272,-21.495 -12.514,-19.518 -12.514,-19.518c0,0 0.229,6.691 0.339,6.899c7.801,14.76 -5.074,32.064 -21.462,28.88c-0.309,-0.06 -0.606,-0.12 -0.891,-0.182c-2.076,-0.434 -3.91,-1.642 -5.127,-3.379c-1.217,-1.737 -1.727,-3.873 -1.426,-5.973c1.614,-12.964 -6.415,-12.734 -6.415,-12.734h-11.741l-6.097,-5.488c-0.216,-0.194 -0.475,-0.332 -0.756,-0.402c-0.281,-0.07 -0.575,-0.071 -0.856,-0.001c-0.281,0.069 -0.54,0.207 -0.756,0.4c-0.216,0.193 -0.381,0.436 -0.481,0.708l-0.785,2.129c0,0 -11.58,1.206 -10.615,12.545h3.58c-0.008,0.322 0.005,0.645 0.039,0.965l26.719,-0.217c1.566,-0.013 2.949,1.256 2.955,2.822c0.002,0.382 -0.073,0.759 -0.221,1.111c-0.148,0.351 -0.365,0.67 -0.639,0.935c-0.273,0.266 -0.597,0.474 -0.953,0.611c-0.356,0.138 -0.736,0.202 -1.117,0.189l-4.307,-0.143c-1.327,5.91 1.93,9.891 5.518,12.394c3.379,2.323 7.388,3.554 11.488,3.528h11.703c15.199,0 17.853,-12.786 17.853,-12.786c7.961,-3.378 6.965,-13.293 6.965,-13.293z" fill="#3F3D56"/>
<path id="Vector_28" d="M144.815,87.655c7.495,0 13.571,-6.076 13.571,-13.571c0,-7.495 -6.076,-13.57 -13.571,-13.57c-7.494,0 -13.57,6.075 -13.57,13.57c0,7.495 6.076,13.571 13.57,13.571z" fill="#3F3D56"/>
<path id="Vector_29" d="M144.815,77.41c1.837,0 3.326,-1.489 3.326,-3.326c0,-1.837 -1.489,-3.326 -3.326,-3.326c-1.837,0 -3.326,1.489 -3.326,3.326c0,1.837 1.489,3.326 3.326,3.326z" fill="white"/>
<path id="Vector_30" d="M76.299,87.655c8.627,0 15.621,-6.994 15.621,-15.621c0,-8.628 -6.994,-15.622 -15.621,-15.622c-8.627,0 -15.621,6.994 -15.621,15.622c0,8.627 6.994,15.621 15.621,15.621z" fill="#3F3D56"/>
<path id="Vector_31" d="M76.299,75.862c2.115,0 3.829,-1.714 3.829,-3.828c0,-2.115 -1.714,-3.829 -3.829,-3.829c-2.114,0 -3.829,1.714 -3.829,3.829c0,2.114 1.715,3.828 3.829,3.828z" fill="white"/>
<path id="Vector_32" d="M121.979,40.232l-2.864,-7.78c-0.15,-0.406 -0.218,-0.837 -0.2,-1.269c0.017,-0.431 0.119,-0.856 0.3,-1.248c0.181,-0.392 0.438,-0.745 0.755,-1.038c0.318,-0.293 0.69,-0.521 1.096,-0.67l8.212,-3.023c0.713,-0.263 1.472,-0.383 2.231,-0.352c0.76,0.03 1.506,0.21 2.197,0.528c0.69,0.319 1.311,0.771 1.826,1.329c0.516,0.559 0.917,1.214 1.179,1.927c0.237,0.64 0.358,1.318 0.358,2.001c-0.003,0.867 -0.2,1.722 -0.575,2.504c-0.375,0.781 -0.919,1.47 -1.594,2.014c-0.487,0.391 -1.034,0.7 -1.621,0.915z" fill="#3F3D56"/>
<path id="Vector_33" d="M136.948,30.637c-0.001,0.849 -0.192,1.687 -0.559,2.453c-0.367,0.766 -0.902,1.439 -1.564,1.971c-1.016,-0.268 -1.961,-0.754 -2.77,-1.424c-0.809,-0.67 -1.462,-1.508 -1.915,-2.457c-0.452,-0.948 -0.692,-1.983 -0.704,-3.034c-0.012,-1.05 0.205,-2.09 0.636,-3.049c0.828,-0.179 1.685,-0.172 2.509,0.023c0.824,0.195 1.595,0.571 2.254,1.103c0.659,0.531 1.192,1.203 1.557,1.967c0.366,0.764 0.556,1.6 0.556,2.447z" fill="#9BFE03"/>
<path id="Vector_34" d="M63.935,60.031c1.865,0 3.377,-1.836 3.377,-4.101c0,-2.265 -1.512,-4.102 -3.377,-4.102c-1.866,0 -3.378,1.837 -3.378,4.102c0,2.265 1.512,4.101 3.378,4.101z" fill="#9BFE03"/>
<path id="Vector_35" d="M108.582,70.448h2.957l1.408,-7.672l-4.366,0.001z" fill="#FFB8B8"/>
<path id="Vector_36" d="M107.827,69.482h5.825v0c0.488,0 0.97,0.096 1.421,0.282c0.45,0.187 0.859,0.46 1.204,0.805c0.345,0.345 0.618,0.754 0.805,1.204c0.186,0.45 0.282,0.933 0.282,1.421v0.12l-9.537,0.001z" fill="#2F2E41"/>
<path id="Vector_37" d="M112.015,67.299c-0.035,0 -0.069,-0.002 -0.104,-0.005l-4.093,-0.298c-0.166,-0.015 -0.326,-0.068 -0.467,-0.155c-0.142,-0.087 -0.262,-0.206 -0.351,-0.346c-0.089,-0.141 -0.144,-0.3 -0.161,-0.465c-0.018,-0.165 0.003,-0.332 0.06,-0.489l5.478,-12.307c0.039,-0.11 0.055,-0.226 0.047,-0.343c-0.008,-0.116 -0.041,-0.229 -0.095,-0.332c-0.053,-0.105 -0.129,-0.196 -0.221,-0.27c-0.092,-0.073 -0.198,-0.126 -0.312,-0.155c-2.576,-0.673 -9.185,-2.466 -14.906,-4.564c-2.451,-0.899 -3.995,-2.198 -4.589,-3.86c-0.782,-2.193 0.375,-4.192 0.425,-4.276l0.039,-0.066l5.383,0.49l5.837,0.496l12.789,6.858c1.072,0.58 1.886,1.542 2.28,2.695c0.395,1.153 0.34,2.412 -0.152,3.526l-5.897,13.223c-0.085,0.191 -0.224,0.354 -0.4,0.468c-0.175,0.114 -0.381,0.175 -0.59,0.175z" fill="#2F2E41"/>
<path id="Vector_38" d="M99.085,15.508c3.272,0 5.925,-2.653 5.925,-5.925c0,-3.273 -2.653,-5.926 -5.925,-5.926c-3.273,0 -5.926,2.653 -5.926,5.926c0,3.272 2.653,5.925 5.926,5.925z" fill="#FFB8B8"/>
<path id="Vector_39" d="M106.893,71.171h2.958l1.407,-7.671h-4.366z" fill="#FFB8B8"/>
<path id="Vector_40" d="M106.138,70.206l5.825,-0.001v0c0.488,0 0.971,0.096 1.421,0.283c0.45,0.186 0.86,0.46 1.204,0.805c0.345,0.344 0.618,0.754 0.805,1.204c0.186,0.45 0.282,0.933 0.282,1.42v0.121h-9.536z" fill="#2F2E41"/>
<path id="Vector_41" d="M110.326,68.023c-0.034,0 -0.069,-0.002 -0.104,-0.005l-4.093,-0.298c-0.166,-0.016 -0.325,-0.069 -0.467,-0.156c-0.142,-0.086 -0.262,-0.205 -0.351,-0.345c-0.088,-0.141 -0.144,-0.3 -0.161,-0.465c-0.018,-0.166 0.003,-0.333 0.06,-0.489l5.478,-12.307c0.039,-0.11 0.055,-0.227 0.047,-0.343c-0.008,-0.116 -0.04,-0.229 -0.094,-0.333c-0.054,-0.104 -0.13,-0.196 -0.222,-0.269c-0.092,-0.073 -0.198,-0.126 -0.312,-0.155c-2.576,-0.673 -9.185,-2.466 -14.906,-4.564c-2.451,-0.899 -3.995,-2.198 -4.588,-3.861c-0.783,-2.192 0.375,-4.191 0.424,-4.275l0.039,-0.066l5.384,0.49l5.836,0.496l12.79,6.858c1.071,0.58 1.885,1.542 2.28,2.695c0.394,1.152 0.339,2.411 -0.153,3.526l-5.896,13.222c-0.086,0.192 -0.225,0.355 -0.4,0.469c-0.176,0.114 -0.381,0.175 -0.591,0.175z" fill="#2F2E41"/>
<path id="Vector_42" d="M100.912,18.868l-6.273,-2.171c0,0 -3.937,3.025 -2.046,10.53c0.988,3.873 0.7,7.961 -0.82,11.658c-0.183,0.457 -0.394,0.903 -0.632,1.334c0,0 6.997,8.444 13.51,2.171l-2.533,-12.183c0,0 3.981,-8.082 -1.206,-11.339z" fill="#9BFE03"/>
<path id="Vector_43" d="M99.82,15.71c-0.843,-1.263 -1.509,-3.013 -0.58,-4.214c0.916,-1.186 2.724,-1.011 4.128,-1.536c1.955,-0.73 3.089,-3.027 2.735,-5.084c-0.353,-2.057 -2.005,-3.762 -3.972,-4.46c-1.967,-0.698 -4.185,-0.471 -6.112,0.333c-2.371,0.989 -4.405,2.902 -5.258,5.326c-0.853,2.423 -0.397,5.333 1.372,7.196c1.898,1.997 4.875,2.53 7.63,2.497" fill="#2F2E41"/>
<path id="Vector_44" d="M94.308,4.942c-1.062,0.865 -2.684,0.481 -3.824,-0.279c-1.141,-0.759 -2.067,-1.84 -3.301,-2.435c-2.176,-1.05 -4.807,-0.352 -6.924,0.81c-2.118,1.163 -3.995,2.769 -6.232,3.681c-2.237,0.912 -5.092,0.957 -6.786,-0.765c-0.416,1.208 -0.451,2.514 -0.097,3.742c0.353,1.228 1.077,2.317 2.072,3.118c0.995,0.802 2.213,1.276 3.488,1.36c1.274,0.084 2.544,-0.228 3.635,-0.893c2.451,-1.493 3.805,-4.623 6.554,-5.447c1.521,-0.456 3.155,-0.089 4.692,0.309c1.538,0.398 3.141,0.827 4.692,0.489c1.552,-0.339 3.003,-1.733 2.806,-3.309z" fill="#2F2E41"/>
<path id="Vector_45" d="M127.874,30.227c-0.156,-0.345 -0.386,-0.652 -0.673,-0.899c-0.287,-0.247 -0.625,-0.428 -0.99,-0.53c-0.365,-0.102 -0.748,-0.123 -1.122,-0.061c-0.373,0.061 -0.729,0.204 -1.042,0.419l-23.032,-5.17l-0.287,5.629l22.731,3.311c0.394,0.502 0.959,0.841 1.587,0.953c0.628,0.113 1.275,-0.008 1.819,-0.341c0.545,-0.333 0.948,-0.854 1.134,-1.464c0.186,-0.61 0.141,-1.267 -0.125,-1.847z" fill="#FFB8B8"/>
<path id="Vector_46" d="M105.053,24.503l-1.406,5.699c-0.04,0.162 -0.114,0.313 -0.218,0.444c-0.104,0.131 -0.235,0.238 -0.384,0.313c-0.149,0.076 -0.312,0.119 -0.479,0.125c-0.167,0.007 -0.333,-0.022 -0.488,-0.085l-5.414,-2.219c-0.829,-0.209 -1.541,-0.739 -1.98,-1.472c-0.439,-0.733 -0.569,-1.611 -0.362,-2.44c0.207,-0.829 0.735,-1.543 1.467,-1.983c0.732,-0.441 1.61,-0.573 2.439,-0.368l5.807,0.551c0.166,0.016 0.327,0.067 0.472,0.151c0.144,0.083 0.269,0.197 0.366,0.333c0.096,0.137 0.162,0.292 0.194,0.456c0.031,0.164 0.026,0.333 -0.014,0.495z" fill="#9BFE03"/>
<path id="Vector_47" d="M125.213,34.699c0.933,0 1.689,-0.756 1.689,-1.688c0,-0.933 -0.756,-1.689 -1.689,-1.689c-0.932,0 -1.688,0.756 -1.688,1.689c0,0.932 0.756,1.688 1.688,1.688z" fill="#9BFE03"/>
<path id="Vector_48" d="M200,87.775c0,0.064 -0.026,0.126 -0.071,0.171c-0.045,0.045 -0.106,0.07 -0.17,0.071h-199.518c-0.064,0 -0.125,-0.026 -0.17,-0.071c-0.046,-0.045 -0.071,-0.107 -0.071,-0.171c0,-0.064 0.025,-0.125 0.071,-0.17c0.045,-0.045 0.106,-0.071 0.17,-0.071h199.518c0.064,0 0.125,0.026 0.17,0.071c0.045,0.045 0.071,0.106 0.071,0.17z" fill="#3F3D56"/>
</g></svg>