<svg viewBox="0 0 27.148 11.5" fill="none" xmlns="http://www.w3.org/2000/svg" xmlns:xlink="http://www.w3.org/1999/xlink" x="0" y="0"><g id="battery">
<path id="outline" opacity="0.44" fill-rule="evenodd" clip-rule="evenodd" d="M24.9999,3.5l0.46,0.3066c0.65,0.4332 1.04,1.1625 1.04,1.9434c0,0.7809 -0.39,1.5102 -1.04,1.9434l-0.46,0.3066zM1.9999,0h20c1.105,0 2,0.8954 2,2v7.5c0,1.1046 -0.895,2 -2,2h-20c-1.105,0 -2,-0.8954 -2,-2v-7.5c0,-1.1046 0.895,-2 2,-2zM1.9999,1c-0.552,0 -1,0.4477 -1,1v7.5c0,0.5523 0.448,1 1,1h20c0.552,0 1,-0.4477 1,-1v-7.5c0,-0.5523 -0.448,-1 -1,-1z" fill="currentColor"/>
<path id="isnide" fill-rule="evenodd" clip-rule="evenodd" d="M2.9999,2h15v7.5h-15c-0.552,0 -1,-0.4477 -1,-1v-5.5c0,-0.5523 0.448,-1 1,-1z" fill="currentColor"/>
</g></svg>