<svg viewBox="0 0 16.6667 13.3333" fill="none" xmlns="http://www.w3.org/2000/svg" xmlns:xlink="http://www.w3.org/1999/xlink" x="0" y="0"><path id="Vector_49" d="M1.6673,0.4997h0.333v12.333h-0.333c-0.645,0 -1.167,-0.521 -1.167,-1.166v-10c0,-0.644 0.522,-1.167 1.167,-1.167zM15.0003,0.4997c0.644,0 1.167,0.523 1.167,1.167v10c0,0.645 -0.523,1.166 -1.167,1.166h-10.75v-12.333zM8.3333,1.9997c-1.197,0.001 -2.166,0.971 -2.166,2.167v0.833c0,1.197 0.969,2.167 2.166,2.167h3.334c1.196,0 2.166,-0.97 2.166,-2.167v-0.833c0,-1.196 -0.97,-2.166 -2.166,-2.167zM11.5833,4.2497v0.667h-3.166v-0.667z" fill="currentColor" stroke="currentColor"/></svg>