<svg viewBox="0 0 14 14" fill="none" xmlns="http://www.w3.org/2000/svg" xmlns:xlink="http://www.w3.org/1999/xlink" x="0" y="0"><defs><clipPath id="clip2_65_235">
<rect width="14" height="14" fill="white" transform="translate(0, 0)"/>
</clipPath></defs><g id="Icons/Dollar Sign" clip-path="url(#clip2_65_235)">
<path id="Vector_25" d="M7,0.583v12.834" stroke="#909090" stroke-linecap="round" stroke-linejoin="round"/>
<path id="Vector_26" d="M9.917,2.917h-4.375c-0.542,0 -1.061,0.215 -1.444,0.598c-0.383,0.383 -0.598,0.902 -0.598,1.443c0,0.542 0.215,1.061 0.598,1.444c0.383,0.383 0.902,0.598 1.444,0.598h2.916c0.542,0 1.061,0.215 1.444,0.598c0.383,0.383 0.598,0.902 0.598,1.444c0,0.541 -0.215,1.06 -0.598,1.443c-0.383,0.383 -0.902,0.598 -1.444,0.598h-4.958" stroke="#909090" stroke-linecap="round" stroke-linejoin="round"/>
</g></svg>