<svg viewBox="0 0 20 16" fill="none" xmlns="http://www.w3.org/2000/svg" xmlns:xlink="http://www.w3.org/1999/xlink" x="0" y="0"><path id="Vector_9" d="M0,2c0,-1.105 0.895,-2 2,-2h1v16h-1c-1.105,0 -2,-0.895 -2,-2zM14,4.5h-4c-0.276,0 -0.5,0.224 -0.5,0.5v1c0,0.276 0.224,0.5 0.5,0.5h4c0.276,0 0.5,-0.224 0.5,-0.5v-1c0,-0.276 -0.224,-0.5 -0.5,-0.5zM4.5,16h13.5c1.105,0 2,-0.895 2,-2v-12c0,-1.105 -0.895,-2 -2,-2h-13.5zM10,3h4c1.105,0 2,0.895 2,2v1c0,1.105 -0.895,2 -2,2h-4c-1.105,0 -2,-0.895 -2,-2v-1c0,-1.105 0.895,-2 2,-2z" fill="currentColor"/></svg>