<svg viewBox="0 0 20 20.0017" fill="none" xmlns="http://www.w3.org/2000/svg" xmlns:xlink="http://www.w3.org/1999/xlink" x="0" y="0"><path id="Vector_4" d="M10,0c5.523,0 10,4.4771 10,10c0,5.5228 -4.477,10 -10,10c-1.618,0 -3.182,-0.385 -4.587,-1.112l-3.826,1.067c-0.665,0.186 -1.354,-0.202 -1.54,-0.867c-0.062,-0.22 -0.062,-0.453 0,-0.673l1.068,-3.8228c-0.729,-1.4062 -1.115,-2.9719 -1.115,-4.5922c0,-5.5229 4.477,-10 10,-10zM10,1.5c-4.694,0 -8.5,3.8056 -8.5,8.5c0,1.4696 0.373,2.8834 1.073,4.1375l0.151,0.2697l-1.113,3.9838l3.987,-1.1118l0.269,0.1503c1.253,0.6985 2.665,1.0705 4.133,1.0705c4.694,0 8.5,-3.8056 8.5,-8.5c0,-4.6944 -3.806,-8.5 -8.5,-8.5zM10,13.5c0.552,0 1,0.4477 1,1c0,0.5523 -0.448,1 -1,1c-0.552,0 -1,-0.4477 -1,-1c0,-0.5523 0.448,-1 1,-1zM10,4.75c1.519,0 2.75,1.2312 2.75,2.75c0,1.0108 -0.297,1.574 -1.051,2.3586l-0.169,0.1717c-0.622,0.6219 -0.78,0.886 -0.78,1.4697c0,0.4142 -0.336,0.75 -0.75,0.75c-0.414,0 -0.75,-0.3358 -0.75,-0.75c0,-1.0108 0.297,-1.574 1.051,-2.3586l0.169,-0.1717c0.622,-0.6219 0.78,-0.886 0.78,-1.4697c0,-0.6904 -0.56,-1.25 -1.25,-1.25c-0.647,0 -1.179,0.4919 -1.243,1.1222l-0.007,0.1278c0,0.4142 -0.336,0.75 -0.75,0.75c-0.414,0 -0.75,-0.3358 -0.75,-0.75c0,-1.5188 1.231,-2.75 2.75,-2.75z" fill="currentColor"/></svg>