<svg viewBox="0 0 24 106" fill="none" xmlns="http://www.w3.org/2000/svg" xmlns:xlink="http://www.w3.org/1999/xlink" x="0" y="0"><defs><linearGradient id="paint0_linear_62_91" x1="12.5" y1="28" x2="12.5" y2="78" gradientUnits="userSpaceOnUse">
<stop stop-color="#94D82D" stop-opacity="0.1"/>
<stop offset="1" stop-color="#94D82D"/>
</linearGradient></defs><g id="Frame 110">
<g id="Icons/Location">
<path id="Vector_53" d="M5.8428,4.568c3.4004,-3.401 8.9136,-3.401 12.314,0c3.4004,3.4 3.4004,8.913 0,12.314l-1.187,1.174c-0.8749,0.858 -2.01,1.962 -3.4059,3.312c-0.8722,0.843 -2.256,0.843 -3.1281,0l-3.4911,-3.396c-0.4388,-0.431 -0.8061,-0.794 -1.1019,-1.09c-3.4004,-3.401 -3.4004,-8.914 0,-12.314zM17.0961,5.629c-2.8146,-2.815 -7.378,-2.815 -10.1927,0c-2.8146,2.814 -2.8146,7.378 0,10.192l1.4871,1.468c0.8189,0.801 1.8484,1.801 3.0881,3c0.2907,0.282 0.7519,0.282 1.0427,0.001l3.3949,-3.302c0.4689,-0.46 0.8623,-0.849 1.1799,-1.167c2.8146,-2.814 2.8146,-7.378 0,-10.192zM11.9998,7.999c1.6577,0 3.0015,1.343 3.0015,3.001c0,1.658 -1.3438,3.002 -3.0015,3.002c-1.6577,0 -3.0016,-1.344 -3.0016,-3.002c0,-1.658 1.3439,-3.001 3.0016,-3.001zM11.9998,9.499c-0.8293,0 -1.5016,0.672 -1.5016,1.501c0,0.829 0.6723,1.502 1.5016,1.502c0.8293,0 1.5015,-0.673 1.5015,-1.502c0,-0.829 -0.6722,-1.501 -1.5015,-1.501z" fill="#9BFE03"/>
</g>
<g id="Vector 2">
<path id="Vector 2_2" d="M12,28v50" stroke="url(#paint0_linear_62_91)" stroke-width="1.5" stroke-linecap="round" stroke-linejoin="round" stroke-dasharray="4 4"/>
</g>
<g id="Icons/Location_2">
<path id="Vector_54" d="M5.8428,86.568c3.4004,-3.401 8.9136,-3.401 12.314,0c3.4004,3.4 3.4004,8.913 0,12.314l-1.187,1.174c-0.8749,0.858 -2.01,1.962 -3.4059,3.312c-0.8722,0.843 -2.256,0.843 -3.1281,0l-3.4911,-3.396c-0.4388,-0.431 -0.8061,-0.794 -1.1019,-1.09c-3.4004,-3.401 -3.4004,-8.914 0,-12.314zM17.0961,87.629c-2.8146,-2.815 -7.378,-2.815 -10.1927,0c-2.8146,2.814 -2.8146,7.378 0,10.192l1.4871,1.468c0.8189,0.801 1.8484,1.801 3.0881,3c0.2907,0.282 0.7519,0.282 1.0427,0.001l3.3949,-3.302c0.4689,-0.46 0.8623,-0.849 1.1799,-1.167c2.8146,-2.814 2.8146,-7.378 0,-10.192zM11.9998,89.999c1.6577,0 3.0015,1.343 3.0015,3.001c0,1.658 -1.3438,3.002 -3.0015,3.002c-1.6577,0 -3.0016,-1.344 -3.0016,-3.002c0,-1.658 1.3439,-3.001 3.0016,-3.001zM11.9998,91.499c-0.8293,0 -1.5016,0.672 -1.5016,1.501c0,0.829 0.6723,1.502 1.5016,1.502c0.8293,0 1.5015,-0.673 1.5015,-1.502c0,-0.829 -0.6722,-1.501 -1.5015,-1.501z" fill="#9BFE03"/>
</g>
</g></svg>