<svg viewBox="0 0 15.4169 16.6667" fill="none" xmlns="http://www.w3.org/2000/svg" xmlns:xlink="http://www.w3.org/1999/xlink" x="0" y="0"><path id="Vector_51" d="M14.667,7.0073c0.16,0.34 0.25,0.718 0.25,1.118v3.75c0,2.37 -1.922,4.292 -4.292,4.292h-4.583c-0.399,0 -0.777,-0.091 -1.116,-0.25h5.699c2.232,0 4.042,-1.81 4.042,-4.042zM12.833,5.5003v5.958c0,1.449 -1.175,2.625 -2.625,2.625h-6.25c-1.45,0 -2.625,-1.176 -2.625,-2.625v-5.958zM5.625,6.5833c-0.621,0 -1.125,0.504 -1.125,1.125c0,0.621 0.504,1.125 1.125,1.125h2.897c0.622,0 1.125,-0.504 1.125,-1.125c0,-0.621 -0.503,-1.125 -1.125,-1.125zM1.458,0.5003h11.25c0.529,0 0.959,0.429 0.959,0.958v1.25c0,0.529 -0.43,0.959 -0.959,0.959h-11.25c-0.529,-0.001 -0.958,-0.43 -0.958,-0.959v-1.25c0,-0.529 0.429,-0.958 0.958,-0.958z" fill="currentColor" stroke="currentColor"/></svg>