<svg viewBox="0 0 24 24" fill="none" xmlns="http://www.w3.org/2000/svg" xmlns:xlink="http://www.w3.org/1999/xlink" x="0" y="0"><g id="Icons/Notification Bel">
<path id="Vector_5" d="M18,8c0,-1.5913 -0.632,-3.1174 -1.757,-4.2426c-1.126,-1.1253 -2.652,-1.7574 -4.243,-1.7574c-1.591,0 -3.117,0.6321 -4.243,1.7574c-1.125,1.1252 -1.757,2.6513 -1.757,4.2426c0,7 -3,9 -3,9h18c0,0 -3,-2 -3,-9z" stroke="#9BFE03" stroke-width="1.5" stroke-linecap="round" stroke-linejoin="round"/>
<path id="Vector_6" d="M13.73,21c-0.176,0.303 -0.428,0.555 -0.732,0.73c-0.303,0.174 -0.648,0.266 -0.998,0.266c-0.35,0 -0.695,-0.092 -0.998,-0.266c-0.304,-0.175 -0.556,-0.427 -0.732,-0.73" stroke="#9BFE03" stroke-width="1.5" stroke-linecap="round" stroke-linejoin="round"/>
</g></svg>