<svg viewBox="0 0 18 18" fill="none" xmlns="http://www.w3.org/2000/svg" xmlns:xlink="http://www.w3.org/1999/xlink" x="0" y="0"><g id="Icons/Pin">
<path id="Vector" d="M15.75,7.5c0,5.25 -6.75,9.75 -6.75,9.75c0,0 -6.75,-4.5 -6.75,-9.75c0,-1.7902 0.7112,-3.5071 1.977,-4.773c1.2659,-1.2658 2.9828,-1.977 4.773,-1.977c1.7902,0 3.5071,0.7112 4.773,1.977c1.2658,1.2659 1.977,2.9828 1.977,4.773z" stroke="#909090" stroke-linecap="round" stroke-linejoin="round"/>
<path id="Vector_2" d="M9,9.75c1.2426,0 2.25,-1.007 2.25,-2.25c0,-1.2426 -1.0074,-2.25 -2.25,-2.25c-1.2426,0 -2.25,1.0074 -2.25,2.25c0,1.243 1.0074,2.25 2.25,2.25z" stroke="#909090" stroke-linecap="round" stroke-linejoin="round"/>
</g></svg>