<svg viewBox="0 0 16.9035 10" fill="none" xmlns="http://www.w3.org/2000/svg" xmlns:xlink="http://www.w3.org/1999/xlink" x="0" y="0"><path id="reception" fill-rule="evenodd" clip-rule="evenodd" d="M14.8301,0c-0.5523,0 -1,0.4477 -1,1v8c0,0.5523 0.4477,1 1,1h1.0734c0.5523,0 1,-0.4477 1,-1v-8c0,-0.5523 -0.4477,-1 -1,-1zM9.2201,3c0,-0.5523 0.4477,-1 1,-1h1.0733c0.5523,0 1,0.4477 1,1v6c0,0.5523 -0.4477,1 -1,1h-1.0733c-0.5523,0 -1,-0.4477 -1,-1zM5.61,4c-0.5522,0 -1,0.4477 -1,1v4c0,0.5523 0.4478,1 1,1h1.0734c0.5523,0 1,-0.4477 1,-1v-4c0,-0.5523 -0.4477,-1 -1,-1zM1.0245,10c-0.5658,0 -1.0245,-0.4477 -1.0245,-1v-2.5c0,-0.5523 0.4587,-1 1.0245,-1h1.0244c0.5658,0 1.0245,0.4477 1.0245,1v2.5c0,0.5523 -0.4587,1 -1.0245,1z" fill="currentColor"/></svg>