<svg viewBox="0 0 16.5 20" fill="none" xmlns="http://www.w3.org/2000/svg" xmlns:xlink="http://www.w3.org/1999/xlink" x="0" y="0"><path id="Vector_52" d="M2.5,0.5h11.5c1.105,0 2,0.895 2,2v14.25c0,0.138 -0.112,0.25 -0.25,0.25h-14.75v0.5c0,0.828 0.672,1.5 1.5,1.5h13.25c0.138,0 0.25,0.112 0.25,0.25c0,0.138 -0.112,0.25 -0.25,0.25h-13.25c-1.105,0 -2,-0.895 -2,-2v-15c0,-1.105 0.895,-2 2,-2zM5.75,9c-0.69,0 -1.25,0.56 -1.25,1.25v0.499c0,0.76 0.526,1.335 1.188,1.691c0.67,0.362 1.569,0.56 2.562,0.56c0.993,0 1.892,-0.198 2.562,-0.56c0.662,-0.356 1.188,-0.931 1.188,-1.691v-0.499c0,-0.69 -0.56,-1.25 -1.25,-1.25zM8.25,4.5c-1.241,0 -2.25,1.001 -2.25,2.245c0,1.243 1.007,2.251 2.25,2.251c1.243,0 2.25,-1.008 2.25,-2.251c0,-1.244 -1.009,-2.245 -2.25,-2.245z" fill="currentColor" stroke="currentColor"/></svg>