<svg viewBox="0 0 24 24" fill="none" xmlns="http://www.w3.org/2000/svg" xmlns:xlink="http://www.w3.org/1999/xlink" x="0" y="0"><g id="Icons/audit">
<path id="Vector_10" d="M19,10.5v-0.5c0,-3.771 0,-5.657 -1.172,-6.828c-1.171,-1.172 -3.057,-1.172 -6.828,-1.172c-3.771,0 -5.657,0 -6.828,1.172c-1.172,1.171 -1.172,3.057 -1.172,6.828v6c0,1.864 0,2.796 0.304,3.531c0.406,0.98 1.185,1.758 2.165,2.164c0.735,0.305 1.667,0.305 3.531,0.305" stroke="#111111" stroke-width="1.5" stroke-linecap="round" stroke-linejoin="round"/>
<path id="Vector_11" d="M14.802,15.5c0.064,0.338 0.183,0.681 0.312,1.101v0.001c0.104,0.337 0.208,0.711 0.282,1.148h-0.507c-0.069,-0.374 -0.16,-0.7 -0.253,-1.002c-0.13,-0.422 -0.272,-0.825 -0.342,-1.248zM18.706,15.5c-0.07,0.423 -0.212,0.826 -0.342,1.248c-0.093,0.302 -0.184,0.628 -0.253,1.002h-0.507c0.074,-0.437 0.178,-0.811 0.282,-1.148v-0.001c0.129,-0.42 0.248,-0.763 0.312,-1.101zM17,12.808c0.841,0.191 1.501,0.851 1.692,1.692h-0.516c-0.168,-0.564 -0.612,-1.009 -1.176,-1.177zM16,13.323c-0.564,0.168 -1.008,0.613 -1.176,1.177h-0.516c0.191,-0.841 0.851,-1.501 1.692,-1.692zM16.494,18.75h0.012c-0.002,0.082 -0.006,0.165 -0.006,0.25c0,-0.085 -0.004,-0.168 -0.006,-0.25z" fill="black" stroke="#111111"/>
<path id="Vector_12" d="M21,22h-9v-1.246c0,-0.446 0.266,-0.839 0.653,-0.961l2.255,-0.716c0.16,-0.051 0.327,-0.077 0.494,-0.077h2.196c0.167,0 0.334,0.026 0.494,0.077l2.255,0.716c0.387,0.122 0.653,0.515 0.653,0.961z" stroke="#111111" stroke-width="1.5" stroke-linejoin="round"/>
<path id="Vector_13" d="M7,7h8M7,11h4" stroke="#111111" stroke-width="1.5" stroke-linecap="round"/>
</g></svg>