<svg viewBox="0 0 24 24" fill="none" xmlns="http://www.w3.org/2000/svg" xmlns:xlink="http://www.w3.org/1999/xlink" x="0" y="0"><g id="Icons/apple-reminder">
<path id="Vector_3" d="M2.5,12c0,-4.478 0,-6.718 1.3912,-8.109c1.3913,-1.391 3.6305,-1.391 8.1088,-1.391c4.4783,0 6.7175,0 8.1088,1.391c1.3912,1.391 1.3912,3.631 1.3912,8.109c0,4.478 0,6.718 -1.3912,8.109c-1.3913,1.391 -3.6305,1.391 -8.1088,1.391c-4.4783,0 -6.7175,0 -8.1088,-1.391c-1.3912,-1.391 -1.3912,-3.631 -1.3912,-8.109z" stroke="#111111" stroke-width="1.5" stroke-linejoin="round"/>
<path id="Vector_4" d="M11,7.5h6M8,7.5c0,0.276 -0.2239,0.5 -0.5,0.5c-0.2761,0 -0.5,-0.224 -0.5,-0.5c0,-0.276 0.2239,-0.5 0.5,-0.5c0.2761,0 0.5,0.224 0.5,0.5z" stroke="#111111" stroke-width="1.5" stroke-linecap="round" stroke-linejoin="round"/>
<path id="Vector_5" d="M11,12h6M8,12c0,0.276 -0.2239,0.5 -0.5,0.5c-0.2761,0 -0.5,-0.224 -0.5,-0.5c0,-0.276 0.2239,-0.5 0.5,-0.5c0.2761,0 0.5,0.224 0.5,0.5z" stroke="#111111" stroke-width="1.5" stroke-linecap="round" stroke-linejoin="round"/>
<path id="Vector_6" d="M11,16.5h6M8,16.5c0,0.276 -0.2239,0.5 -0.5,0.5c-0.2761,0 -0.5,-0.224 -0.5,-0.5c0,-0.276 0.2239,-0.5 0.5,-0.5c0.2761,0 0.5,0.224 0.5,0.5z" stroke="#111111" stroke-width="1.5" stroke-linecap="round" stroke-linejoin="round"/>
</g></svg>