<svg viewBox="0 0 100.0004 100.0004" fill="none" xmlns="http://www.w3.org/2000/svg" xmlns:xlink="http://www.w3.org/1999/xlink" id="d385be79" x="0" y="0"><g id="Home V3" data-node-id="62:91" clip-path="url(#clip0_62_91)"><g id="Page contents" data-node-id="158:2505"><g id="Cards/Banner" data-node-id="158:2513"><g id="Group 62" data-node-id="I158:2513;137:1684"><path id="Ellipse 3" data-node-id="I158:2513;137:1618" d="M87.4671,50.0002c6.646,0 12.177,-5.465 10.578,-11.915c-1.76,-7.094 -5.081,-13.761 -9.781,-19.487c-7.265,-8.853 -17.375,-14.913 -28.607,-17.147c-11.2321,-2.234 -22.8913,-0.505 -32.9911,4.894c-10.0999,5.398 -18.0154,14.132 -22.3979,24.712c-4.3826,10.581 -4.9609,22.353 -1.6365,33.312c3.3243,10.959 10.3457,20.426 19.8678,26.789c9.522,6.362 20.9556,9.226 32.3527,8.104c7.373,-0.727 14.435,-3.092 20.696,-6.864c5.692,-3.43 5.644,-11.206 0.945,-15.905c-4.699,-4.699 -12.354,-4.331 -18.678,-2.289c-1.719,0.555 -3.502,0.929 -5.322,1.108c-5.856,0.577 -11.7309,-0.895 -16.6236,-4.164c-4.8927,-3.269 -8.5004,-8.134 -10.2086,-13.765c-1.7081,-5.631 -1.411,-11.68 0.8409,-17.116c2.2519,-5.437 6.3191,-9.924 11.5086,-12.698c5.1896,-2.774 11.1804,-3.663 16.9517,-2.515c5.771,1.148 10.966,4.262 14.699,8.811c1.16,1.413 2.157,2.938 2.98,4.546c3.028,5.915 8.181,11.589 14.826,11.589z" fill="#124966"/><path id="Ellipse 4" data-node-id="I158:2513;137:1619" d="M50.0001,12.5332c0,-6.646 -5.4648,-12.177 -11.9149,-10.578c-7.0942,1.76 -13.7607,5.081 -19.4876,9.781c-8.8526,7.265 -14.9122,17.375 -17.1464,28.607c-2.2342,11.232 -0.5047,22.891 4.8938,32.991c5.3985,10.1 14.1319,18.016 24.7123,22.398c10.5803,4.383 22.3528,4.961 33.3118,1.637c10.959,-3.325 20.426,-10.346 26.789,-19.868c6.362,-9.522 9.226,-20.956 8.104,-32.353c-0.727,-7.373 -3.092,-14.435 -6.864,-20.696c-3.43,-5.692 -11.206,-5.644 -15.905,-0.945c-4.699,4.699 -4.331,12.354 -2.289,18.678c0.555,1.719 0.929,3.502 1.108,5.322c0.577,5.856 -0.895,11.731 -4.164,16.624c-3.269,4.892 -8.134,8.5 -13.765,10.208c-5.6308,1.708 -11.6799,1.411 -17.1163,-0.841c-5.4365,-2.252 -9.9239,-6.319 -12.6978,-11.508c-2.7739,-5.19 -3.6625,-11.181 -2.5146,-16.952c1.148,-5.771 4.2616,-10.966 8.8103,-14.699c1.4137,-1.16 2.9388,-2.157 4.5463,-2.98c5.9156,-3.028 11.5891,-8.181 11.5891,-14.826z" fill="#9BFE03"/></g></g></g></g><defs><clipPath id="clip0_62_91">
<rect width="430" height="1069" fill="white" x="-46.9999" y="-351.4998"/>
</clipPath></defs></svg>