<svg viewBox="0 0 17.0217 12" fill="none" xmlns="http://www.w3.org/2000/svg" xmlns:xlink="http://www.w3.org/1999/xlink" x="0" y="0"><path id="wifi" d="M8.5114,2.4922c2.47,0.0001 4.845,0.9318 6.635,2.6026c0.135,0.129 0.35,0.1274 0.483,-0.0036l1.288,-1.2767c0.067,-0.0665 0.105,-0.1565 0.104,-0.2501c0,-0.0937 -0.039,-0.1833 -0.107,-0.2489c-4.698,-4.4207 -12.1092,-4.4207 -16.8071,0c-0.0681,0.0656 -0.1067,0.1551 -0.1073,0.2488c-0.0006,0.0936 0.0368,0.1837 0.1039,0.2502l1.2888,1.2767c0.1327,0.1312 0.3483,0.1328 0.483,0.0036c1.7901,-1.6709 4.1656,-2.6026 6.6357,-2.6026zM8.5114,6.6459c1.357,-0.0001 2.665,0.4951 3.671,1.3894c0.136,0.1269 0.351,0.1242 0.483,-0.0062l1.287,-1.2767c0.068,-0.067 0.105,-0.1578 0.104,-0.2522c-0.001,-0.0944 -0.04,-0.1845 -0.109,-0.2501c-3.063,-2.7975 -7.8065,-2.7975 -10.8695,0c-0.0692,0.0656 -0.1087,0.1557 -0.1096,0.2502c-0.0009,0.0944 0.0369,0.1852 0.1048,0.2521l1.2865,1.2767c0.1326,0.1304 0.3469,0.1331 0.483,0.0062c1.0052,-0.8937 2.3128,-1.3889 3.6688,-1.3894zM10.9844,9.6929c0.069,-0.0663 0.107,-0.1576 0.105,-0.2523c-0.002,-0.0947 -0.044,-0.1843 -0.115,-0.2478c-1.422,-1.1807 -3.504,-1.1807 -4.9259,0c-0.0716,0.0634 -0.1133,0.1531 -0.1153,0.2477c-0.0021,0.0947 0.0358,0.186 0.1045,0.2524l2.2267,2.2058c0.065,0.0648 0.154,0.1013 0.247,0.1013c0.093,0 0.182,-0.0365 0.247,-0.1013z" fill="currentColor"/></svg>